<?xml version="1.0" encoding="UTF-8" standalone="no"?>
<!DOCTYPE svg PUBLIC "-//W3C//DTD SVG 1.1//EN"
 "http://www.w3.org/Graphics/SVG/1.1/DTD/svg11.dtd">
<!-- Generated by graphviz version 14.1.1 (20251213.1925)
 -->
<!-- Pages: 1 -->
<svg width="720pt" height="313pt"
 viewBox="0.00 0.00 720.00 313.00" xmlns="http://www.w3.org/2000/svg" xmlns:xlink="http://www.w3.org/1999/xlink">
<g id="graph0" class="graph" transform="scale(0.308157 0.308157) rotate(0) translate(4 1012)">
<polygon fill="white" stroke="none" points="-4,4 -4,-1012 2332.47,-1012 2332.47,4 -4,4"/>
<!-- words -->
<g id="node1" class="node">
<title>words</title>
<polygon fill="none" stroke="black" points="637.85,-57.6 583.85,-57.6 583.85,0 637.85,0 637.85,-57.6"/>
<text xml:space="preserve" text-anchor="middle" x="610.85" y="-23.75" font-family="Times,serif" font-size="14.00">words</text>
</g>
<!-- web&#45;rep -->
<g id="node2" class="node">
<title>web&#45;rep</title>
<polygon fill="none" stroke="black" points="2135.97,-295.2 2075.72,-295.2 2075.72,-237.6 2135.97,-237.6 2135.97,-295.2"/>
<text xml:space="preserve" text-anchor="middle" x="2105.85" y="-261.35" font-family="Times,serif" font-size="14.00">web&#45;rep</text>
</g>
<!-- circuits&#45;parser -->
<g id="node17" class="node">
<title>circuits&#45;parser</title>
<polygon fill="none" stroke="black" points="1809.47,-770.4 1716.22,-770.4 1716.22,-712.8 1809.47,-712.8 1809.47,-770.4"/>
<text xml:space="preserve" text-anchor="middle" x="1762.85" y="-736.55" font-family="Times,serif" font-size="14.00">circuits&#45;parser</text>
</g>
<!-- web&#45;rep&#45;&gt;circuits&#45;parser -->
<g id="edge1" class="edge">
<title>web&#45;rep&#45;&gt;circuits&#45;parser</title>
<path fill="none" stroke="black" d="M2095.35,-295.42C2075.76,-345.74 2030.35,-453.54 1972.85,-532.8 1922.29,-602.5 1847.73,-670.15 1802.39,-708.46"/>
<polygon fill="black" stroke="black" points="1801.41,-707 1798.71,-711.56 1803.66,-709.68 1801.41,-707"/>
</g>
<!-- box&#45;socket -->
<g id="node25" class="node">
<title>box&#45;socket</title>
<polygon fill="none" stroke="black" points="2328.47,-532.8 2253.22,-532.8 2253.22,-475.2 2328.47,-475.2 2328.47,-532.8"/>
<text xml:space="preserve" text-anchor="middle" x="2290.85" y="-498.95" font-family="Times,serif" font-size="14.00">box&#45;socket</text>
</g>
<!-- web&#45;rep&#45;&gt;box&#45;socket -->
<g id="edge2" class="edge">
<title>web&#45;rep&#45;&gt;box&#45;socket</title>
<path fill="none" stroke="black" d="M2127.8,-295.35C2162.06,-338.98 2228.11,-423.1 2264.76,-469.77"/>
<polygon fill="black" stroke="black" points="2263.24,-470.68 2267.71,-473.53 2266,-468.51 2263.24,-470.68"/>
</g>
<!-- box -->
<g id="node26" class="node">
<title>box</title>
<polygon fill="none" stroke="black" points="2317.85,-770.4 2263.85,-770.4 2263.85,-712.8 2317.85,-712.8 2317.85,-770.4"/>
<text xml:space="preserve" text-anchor="middle" x="2290.85" y="-736.55" font-family="Times,serif" font-size="14.00">box</text>
</g>
<!-- web&#45;rep&#45;&gt;box -->
<g id="edge3" class="edge">
<title>web&#45;rep&#45;&gt;box</title>
<path fill="none" stroke="black" d="M2116.87,-295.58C2149.03,-377.86 2242.72,-617.5 2277.58,-706.66"/>
<polygon fill="black" stroke="black" points="2275.89,-707.13 2279.34,-711.15 2279.15,-705.86 2275.89,-707.13"/>
</g>
<!-- prettychart -->
<g id="node3" class="node">
<title>prettychart</title>
<polygon fill="none" stroke="black" points="716.1,-295.2 641.6,-295.2 641.6,-237.6 716.1,-237.6 716.1,-295.2"/>
<text xml:space="preserve" text-anchor="middle" x="678.85" y="-261.35" font-family="Times,serif" font-size="14.00">prettychart</text>
</g>
<!-- numhask&#45;space -->
<g id="node5" class="node">
<title>numhask&#45;space</title>
<polygon fill="none" stroke="black" points="505.85,-770.4 405.85,-770.4 405.85,-712.8 505.85,-712.8 505.85,-770.4"/>
<text xml:space="preserve" text-anchor="middle" x="455.85" y="-736.55" font-family="Times,serif" font-size="14.00">numhask&#45;space</text>
</g>
<!-- prettychart&#45;&gt;numhask&#45;space -->
<g id="edge4" class="edge">
<title>prettychart&#45;&gt;numhask&#45;space</title>
<path fill="none" stroke="black" d="M673.21,-295.56C662.64,-345.18 637.28,-450.73 597.85,-532.8 565.94,-599.22 514.45,-668.31 483.02,-707.73"/>
<polygon fill="black" stroke="black" points="482,-706.21 480.24,-711.2 484.73,-708.39 482,-706.21"/>
</g>
<!-- chart&#45;svg -->
<g id="node22" class="node">
<title>chart&#45;svg</title>
<polygon fill="none" stroke="black" points="836.97,-532.8 770.72,-532.8 770.72,-475.2 836.97,-475.2 836.97,-532.8"/>
<text xml:space="preserve" text-anchor="middle" x="803.85" y="-498.95" font-family="Times,serif" font-size="14.00">chart&#45;svg</text>
</g>
<!-- prettychart&#45;&gt;chart&#45;svg -->
<g id="edge5" class="edge">
<title>prettychart&#45;&gt;chart&#45;svg</title>
<path fill="none" stroke="black" d="M693.68,-295.35C716.73,-338.81 761.1,-422.42 785.92,-469.2"/>
<polygon fill="black" stroke="black" points="784.25,-469.78 788.13,-473.38 787.34,-468.14 784.25,-469.78"/>
</g>
<!-- poker&#45;fold -->
<g id="node4" class="node">
<title>poker&#45;fold</title>
<polygon fill="none" stroke="black" points="409.35,-295.2 336.35,-295.2 336.35,-237.6 409.35,-237.6 409.35,-295.2"/>
<text xml:space="preserve" text-anchor="middle" x="372.85" y="-261.35" font-family="Times,serif" font-size="14.00">poker&#45;fold</text>
</g>
<!-- poker&#45;fold&#45;&gt;numhask&#45;space -->
<g id="edge6" class="edge">
<title>poker&#45;fold&#45;&gt;numhask&#45;space</title>
<path fill="none" stroke="black" d="M377.79,-295.58C392.21,-377.77 434.17,-617.02 449.85,-706.39"/>
<polygon fill="black" stroke="black" points="448.08,-706.45 450.67,-711.07 451.53,-705.85 448.08,-706.45"/>
</g>
<!-- harpie -->
<g id="node11" class="node">
<title>harpie</title>
<polygon fill="none" stroke="black" points="1408.85,-1008 1354.85,-1008 1354.85,-950.4 1408.85,-950.4 1408.85,-1008"/>
<text xml:space="preserve" text-anchor="middle" x="1381.85" y="-974.15" font-family="Times,serif" font-size="14.00">harpie</text>
</g>
<!-- poker&#45;fold&#45;&gt;harpie -->
<g id="edge7" class="edge">
<title>poker&#45;fold&#45;&gt;harpie</title>
<path fill="none" stroke="black" d="M351.9,-295.69C293.08,-378.8 138.3,-625.5 258.85,-770.4 402.98,-943.65 1176.66,-973.07 1348.17,-977.48"/>
<polygon fill="black" stroke="black" points="1347.92,-979.23 1352.97,-977.6 1348.01,-975.73 1347.92,-979.23"/>
</g>
<!-- formatn -->
<g id="node12" class="node">
<title>formatn</title>
<polygon fill="none" stroke="black" points="347.6,-770.4 288.1,-770.4 288.1,-712.8 347.6,-712.8 347.6,-770.4"/>
<text xml:space="preserve" text-anchor="middle" x="317.85" y="-736.55" font-family="Times,serif" font-size="14.00">formatn</text>
</g>
<!-- poker&#45;fold&#45;&gt;formatn -->
<g id="edge8" class="edge">
<title>poker&#45;fold&#45;&gt;formatn</title>
<path fill="none" stroke="black" d="M369.57,-295.58C360.03,-377.69 332.27,-616.54 321.86,-706.12"/>
<polygon fill="black" stroke="black" points="320.12,-705.89 321.28,-711.06 323.6,-706.3 320.12,-705.89"/>
</g>
<!-- poker&#45;fold&#45;&gt;chart&#45;svg -->
<g id="edge9" class="edge">
<title>poker&#45;fold&#45;&gt;chart&#45;svg</title>
<path fill="none" stroke="black" d="M409.6,-287.49C490.37,-331.64 682.73,-436.79 765.21,-481.88"/>
<polygon fill="black" stroke="black" points="763.93,-483.17 769.16,-484.04 765.61,-480.1 763.93,-483.17"/>
</g>
<!-- numhask -->
<g id="node6" class="node">
<title>numhask</title>
<polygon fill="none" stroke="black" points="705.6,-1008 640.1,-1008 640.1,-950.4 705.6,-950.4 705.6,-1008"/>
<text xml:space="preserve" text-anchor="middle" x="672.85" y="-974.15" font-family="Times,serif" font-size="14.00">numhask</text>
</g>
<!-- numhask&#45;space&#45;&gt;numhask -->
<g id="edge10" class="edge">
<title>numhask&#45;space&#45;&gt;numhask</title>
<path fill="none" stroke="black" d="M481.59,-770.55C521.86,-814.27 599.57,-898.64 642.5,-945.25"/>
<polygon fill="black" stroke="black" points="641.1,-946.31 645.78,-948.81 643.67,-943.94 641.1,-946.31"/>
</g>
<!-- mealy -->
<g id="node7" class="node">
<title>mealy</title>
<polygon fill="none" stroke="black" points="1258.85,-532.8 1204.85,-532.8 1204.85,-475.2 1258.85,-475.2 1258.85,-532.8"/>
<text xml:space="preserve" text-anchor="middle" x="1231.85" y="-498.95" font-family="Times,serif" font-size="14.00">mealy</text>
</g>
<!-- mealy&#45;&gt;numhask -->
<g id="edge11" class="edge">
<title>mealy&#45;&gt;numhask</title>
<path fill="none" stroke="black" d="M1204.51,-528.14C1112.91,-605.68 816.69,-856.44 710.87,-946.02"/>
<polygon fill="black" stroke="black" points="709.81,-944.62 707.13,-949.18 712.07,-947.29 709.81,-944.62"/>
</g>
<!-- harpie&#45;numhask -->
<g id="node10" class="node">
<title>harpie&#45;numhask</title>
<polygon fill="none" stroke="black" points="1283.72,-770.4 1179.97,-770.4 1179.97,-712.8 1283.72,-712.8 1283.72,-770.4"/>
<text xml:space="preserve" text-anchor="middle" x="1231.85" y="-736.55" font-family="Times,serif" font-size="14.00">harpie&#45;numhask</text>
</g>
<!-- mealy&#45;&gt;harpie&#45;numhask -->
<g id="edge12" class="edge">
<title>mealy&#45;&gt;harpie&#45;numhask</title>
<path fill="none" stroke="black" d="M1231.85,-532.95C1231.85,-576.14 1231.85,-659 1231.85,-705.94"/>
<polygon fill="black" stroke="black" points="1230.1,-705.8 1231.85,-710.8 1233.6,-705.8 1230.1,-705.8"/>
</g>
<!-- mealy&#45;&gt;harpie -->
<g id="edge13" class="edge">
<title>mealy&#45;&gt;harpie</title>
<path fill="none" stroke="black" d="M1259,-520.36C1308.34,-550.05 1411.23,-620.58 1450.85,-712.8 1485.12,-792.56 1435.56,-893.36 1404.2,-944.75"/>
<polygon fill="black" stroke="black" points="1402.79,-943.71 1401.65,-948.88 1405.77,-945.55 1402.79,-943.71"/>
</g>
<!-- markup&#45;parse -->
<g id="node8" class="node">
<title>markup&#45;parse</title>
<polygon fill="none" stroke="black" points="1666.35,-57.6 1575.35,-57.6 1575.35,0 1666.35,0 1666.35,-57.6"/>
<text xml:space="preserve" text-anchor="middle" x="1620.85" y="-23.75" font-family="Times,serif" font-size="14.00">markup&#45;parse</text>
</g>
<!-- huihua -->
<g id="node9" class="node">
<title>huihua</title>
<polygon fill="none" stroke="black" points="1370.85,-532.8 1316.85,-532.8 1316.85,-475.2 1370.85,-475.2 1370.85,-532.8"/>
<text xml:space="preserve" text-anchor="middle" x="1343.85" y="-498.95" font-family="Times,serif" font-size="14.00">huihua</text>
</g>
<!-- huihua&#45;&gt;harpie -->
<g id="edge14" class="edge">
<title>huihua&#45;&gt;harpie</title>
<path fill="none" stroke="black" d="M1371.04,-521.38C1418.82,-551.96 1516.32,-622.86 1553.85,-712.8 1594.9,-811.17 1474.77,-912.98 1414.32,-956.43"/>
<polygon fill="black" stroke="black" points="1413.3,-955 1410.24,-959.33 1415.33,-957.86 1413.3,-955"/>
</g>
<!-- huihua&#45;&gt;circuits&#45;parser -->
<g id="edge15" class="edge">
<title>huihua&#45;&gt;circuits&#45;parser</title>
<path fill="none" stroke="black" d="M1371.34,-520.46C1440.09,-559.11 1620.37,-660.49 1710.29,-711.04"/>
<polygon fill="black" stroke="black" points="1709.28,-712.49 1714.5,-713.41 1710.99,-709.43 1709.28,-712.49"/>
</g>
<!-- harpie&#45;numhask&#45;&gt;numhask -->
<g id="edge16" class="edge">
<title>harpie&#45;numhask&#45;&gt;numhask</title>
<path fill="none" stroke="black" d="M1179.51,-764.66C1068.25,-811.55 810.38,-920.24 711.97,-961.71"/>
<polygon fill="black" stroke="black" points="711.33,-960.08 707.4,-963.64 712.69,-963.31 711.33,-960.08"/>
</g>
<!-- harpie&#45;numhask&#45;&gt;harpie -->
<g id="edge17" class="edge">
<title>harpie&#45;numhask&#45;&gt;harpie</title>
<path fill="none" stroke="black" d="M1249.65,-770.55C1277.37,-814.09 1330.76,-897.96 1360.51,-944.69"/>
<polygon fill="black" stroke="black" points="1358.87,-945.36 1363.03,-948.64 1361.82,-943.48 1358.87,-945.36"/>
</g>
<!-- eulerproject -->
<g id="node13" class="node">
<title>eulerproject</title>
<polygon fill="none" stroke="black" points="1422.1,-770.4 1341.6,-770.4 1341.6,-712.8 1422.1,-712.8 1422.1,-770.4"/>
<text xml:space="preserve" text-anchor="middle" x="1381.85" y="-736.55" font-family="Times,serif" font-size="14.00">eulerproject</text>
</g>
<!-- eulerproject&#45;&gt;harpie -->
<g id="edge18" class="edge">
<title>eulerproject&#45;&gt;harpie</title>
<path fill="none" stroke="black" d="M1381.85,-770.55C1381.85,-813.74 1381.85,-896.6 1381.85,-943.54"/>
<polygon fill="black" stroke="black" points="1380.1,-943.4 1381.85,-948.4 1383.6,-943.4 1380.1,-943.4"/>
</g>
<!-- ephemeral -->
<g id="node14" class="node">
<title>ephemeral</title>
<polygon fill="none" stroke="black" points="111.35,-770.4 38.35,-770.4 38.35,-712.8 111.35,-712.8 111.35,-770.4"/>
<text xml:space="preserve" text-anchor="middle" x="74.85" y="-736.55" font-family="Times,serif" font-size="14.00">ephemeral</text>
</g>
<!-- ephemeral&#45;&gt;numhask -->
<g id="edge19" class="edge">
<title>ephemeral&#45;&gt;numhask</title>
<path fill="none" stroke="black" d="M111.81,-757.16C218.27,-799.11 524.98,-919.94 633.9,-962.85"/>
<polygon fill="black" stroke="black" points="633.16,-964.44 638.45,-964.65 634.44,-961.19 633.16,-964.44"/>
</g>
<!-- dotparse -->
<g id="node15" class="node">
<title>dotparse</title>
<polygon fill="none" stroke="black" points="1339.72,-295.2 1277.97,-295.2 1277.97,-237.6 1339.72,-237.6 1339.72,-295.2"/>
<text xml:space="preserve" text-anchor="middle" x="1308.85" y="-261.35" font-family="Times,serif" font-size="14.00">dotparse</text>
</g>
<!-- dotparse&#45;&gt;numhask&#45;space -->
<g id="edge20" class="edge">
<title>dotparse&#45;&gt;numhask&#45;space</title>
<path fill="none" stroke="black" d="M1277.6,-287.16C1205.82,-332.33 1023.22,-445.92 865.85,-532.8 741.34,-601.54 591.48,-675.28 511.91,-713.75"/>
<polygon fill="black" stroke="black" points="511.41,-712.05 507.67,-715.8 512.93,-715.2 511.41,-712.05"/>
</g>
<!-- dotparse&#45;&gt;circuits&#45;parser -->
<g id="edge21" class="edge">
<title>dotparse&#45;&gt;circuits&#45;parser</title>
<path fill="none" stroke="black" d="M1335.89,-295.58C1415.22,-378.27 1647.04,-619.9 1731.56,-707.98"/>
<polygon fill="black" stroke="black" points="1730.18,-709.08 1734.9,-711.47 1732.7,-706.65 1730.18,-709.08"/>
</g>
<!-- circuits -->
<g id="node20" class="node">
<title>circuits</title>
<polygon fill="none" stroke="black" points="1986.72,-1008 1930.97,-1008 1930.97,-950.4 1986.72,-950.4 1986.72,-1008"/>
<text xml:space="preserve" text-anchor="middle" x="1958.85" y="-974.15" font-family="Times,serif" font-size="14.00">circuits</text>
</g>
<!-- dotparse&#45;&gt;circuits -->
<g id="edge22" class="edge">
<title>dotparse&#45;&gt;circuits</title>
<path fill="none" stroke="black" d="M1340.02,-285.76C1429.64,-340.01 1691.03,-508.58 1838.85,-712.8 1893.13,-787.79 1931.14,-891.24 1948.39,-944.1"/>
<polygon fill="black" stroke="black" points="1946.73,-944.63 1949.93,-948.85 1950.06,-943.56 1946.73,-944.63"/>
</g>
<!-- dotparse&#45;&gt;chart&#45;svg -->
<g id="edge23" class="edge">
<title>dotparse&#45;&gt;chart&#45;svg</title>
<path fill="none" stroke="black" d="M1277.64,-281.96C1189.72,-322.98 940.09,-439.44 843.08,-484.7"/>
<polygon fill="black" stroke="black" points="842.63,-482.98 838.84,-486.68 844.11,-486.15 842.63,-482.98"/>
</g>
<!-- circuits&#45;string -->
<g id="node16" class="node">
<title>circuits&#45;string</title>
<polygon fill="none" stroke="black" points="983.35,-295.2 892.35,-295.2 892.35,-237.6 983.35,-237.6 983.35,-295.2"/>
<text xml:space="preserve" text-anchor="middle" x="937.85" y="-261.35" font-family="Times,serif" font-size="14.00">circuits&#45;string</text>
</g>
<!-- circuits&#45;string&#45;&gt;chart&#45;svg -->
<g id="edge24" class="edge">
<title>circuits&#45;string&#45;&gt;chart&#45;svg</title>
<path fill="none" stroke="black" d="M921.95,-295.35C897.24,-338.81 849.68,-422.42 823.07,-469.2"/>
<polygon fill="black" stroke="black" points="821.63,-468.19 820.68,-473.4 824.68,-469.92 821.63,-468.19"/>
</g>
<!-- circuits&#45;parser&#45;&gt;harpie -->
<g id="edge25" class="edge">
<title>circuits&#45;parser&#45;&gt;harpie</title>
<path fill="none" stroke="black" d="M1717.27,-770.78C1639.46,-818.9 1482.83,-915.76 1414.72,-957.87"/>
<polygon fill="black" stroke="black" points="1413.81,-956.38 1410.48,-960.5 1415.65,-959.35 1413.81,-956.38"/>
</g>
<!-- circuits&#45;parser&#45;&gt;circuits -->
<g id="edge26" class="edge">
<title>circuits&#45;parser&#45;&gt;circuits</title>
<path fill="none" stroke="black" d="M1786.1,-770.55C1822.4,-814.18 1892.38,-898.3 1931.2,-944.97"/>
<polygon fill="black" stroke="black" points="1929.81,-946.03 1934.35,-948.75 1932.5,-943.79 1929.81,-946.03"/>
</g>
<!-- circuits&#45;meter -->
<g id="node18" class="node">
<title>circuits&#45;meter</title>
<polygon fill="none" stroke="black" points="2205.72,-770.4 2113.97,-770.4 2113.97,-712.8 2205.72,-712.8 2205.72,-770.4"/>
<text xml:space="preserve" text-anchor="middle" x="2159.85" y="-736.55" font-family="Times,serif" font-size="14.00">circuits&#45;meter</text>
</g>
<!-- circuits&#45;meter&#45;&gt;circuits -->
<g id="edge27" class="edge">
<title>circuits&#45;meter&#45;&gt;circuits</title>
<path fill="none" stroke="black" d="M2136,-770.55C2098.78,-814.18 2027.01,-898.3 1987.2,-944.97"/>
<polygon fill="black" stroke="black" points="1985.87,-943.83 1983.96,-948.77 1988.54,-946.1 1985.87,-943.83"/>
</g>
<!-- circuits&#45;io -->
<g id="node19" class="node">
<title>circuits&#45;io</title>
<polygon fill="none" stroke="black" points="2056.22,-770.4 1985.47,-770.4 1985.47,-712.8 2056.22,-712.8 2056.22,-770.4"/>
<text xml:space="preserve" text-anchor="middle" x="2020.85" y="-736.55" font-family="Times,serif" font-size="14.00">circuits&#45;io</text>
</g>
<!-- circuits&#45;io&#45;&gt;circuits -->
<g id="edge28" class="edge">
<title>circuits&#45;io&#45;&gt;circuits</title>
<path fill="none" stroke="black" d="M2013.49,-770.55C2002.1,-813.83 1980.23,-896.94 1967.89,-943.83"/>
<polygon fill="black" stroke="black" points="1966.26,-943.17 1966.68,-948.45 1969.64,-944.06 1966.26,-943.17"/>
</g>
<!-- chart&#45;svg&#45;dev -->
<g id="node21" class="node">
<title>chart&#45;svg&#45;dev</title>
<polygon fill="none" stroke="black" points="785.97,-57.6 695.72,-57.6 695.72,0 785.97,0 785.97,-57.6"/>
<text xml:space="preserve" text-anchor="middle" x="740.85" y="-23.75" font-family="Times,serif" font-size="14.00">chart&#45;svg&#45;dev</text>
</g>
<!-- chart&#45;svg&#45;dev&#45;&gt;prettychart -->
<g id="edge29" class="edge">
<title>chart&#45;svg&#45;dev&#45;&gt;prettychart</title>
<path fill="none" stroke="black" d="M733.49,-57.75C722.1,-101.03 700.23,-184.14 687.89,-231.03"/>
<polygon fill="black" stroke="black" points="686.26,-230.37 686.68,-235.65 689.64,-231.26 686.26,-230.37"/>
</g>
<!-- chart&#45;svg&#45;dev&#45;&gt;numhask&#45;space -->
<g id="edge30" class="edge">
<title>chart&#45;svg&#45;dev&#45;&gt;numhask&#45;space</title>
<path fill="none" stroke="black" d="M720.45,-57.78C692.94,-96.55 643.84,-169.54 612.85,-237.6 535.99,-406.37 482.41,-623.26 463.43,-706.24"/>
<polygon fill="black" stroke="black" points="461.76,-705.71 462.36,-710.97 465.17,-706.48 461.76,-705.71"/>
</g>
<!-- chart&#45;svg&#45;dev&#45;&gt;numhask -->
<g id="edge31" class="edge">
<title>chart&#45;svg&#45;dev&#45;&gt;numhask</title>
<path fill="none" stroke="black" d="M695.59,-47.76C597.64,-87.2 369.84,-182.31 307.85,-237.6 121.63,-403.69 78,-473.04 8.85,-712.8 1.75,-737.4 -6.31,-749.77 8.85,-770.4 85.79,-875.09 502.28,-950.57 633.34,-972"/>
<polygon fill="black" stroke="black" points="633.02,-973.73 638.24,-972.8 633.59,-970.27 633.02,-973.73"/>
</g>
<!-- chart&#45;svg&#45;dev&#45;&gt;dotparse -->
<g id="edge32" class="edge">
<title>chart&#45;svg&#45;dev&#45;&gt;dotparse</title>
<path fill="none" stroke="black" d="M786.37,-48.68C895.81,-94.08 1171.98,-208.63 1271.98,-250.11"/>
<polygon fill="black" stroke="black" points="1271.06,-251.62 1276.35,-251.92 1272.4,-248.39 1271.06,-251.62"/>
</g>
<!-- chart&#45;svg&#45;dev&#45;&gt;circuits&#45;parser -->
<g id="edge33" class="edge">
<title>chart&#45;svg&#45;dev&#45;&gt;circuits&#45;parser</title>
<path fill="none" stroke="black" d="M783.62,-57.92C889.14,-127.46 1169.97,-313.56 1399.85,-475.2 1517.02,-557.59 1652.69,-658.2 1720.16,-708.6"/>
<polygon fill="black" stroke="black" points="1719.03,-709.94 1724.08,-711.53 1721.12,-707.13 1719.03,-709.94"/>
</g>
<!-- chart&#45;svg&#45;dev&#45;&gt;chart&#45;svg -->
<g id="edge34" class="edge">
<title>chart&#45;svg&#45;dev&#45;&gt;chart&#45;svg</title>
<path fill="none" stroke="black" d="M744.6,-57.98C755.53,-140.09 787.33,-378.94 799.26,-468.52"/>
<polygon fill="black" stroke="black" points="797.52,-468.74 799.92,-473.46 800.99,-468.28 797.52,-468.74"/>
</g>
<!-- chart&#45;svg&#45;&gt;numhask&#45;space -->
<g id="edge35" class="edge">
<title>chart&#45;svg&#45;&gt;numhask&#45;space</title>
<path fill="none" stroke="black" d="M770.48,-527.59C708.1,-569.82 573.68,-660.83 502.41,-709.08"/>
<polygon fill="black" stroke="black" points="501.81,-707.37 498.65,-711.63 503.77,-710.27 501.81,-707.37"/>
</g>
<!-- chart&#45;svg&#45;&gt;numhask -->
<g id="edge36" class="edge">
<title>chart&#45;svg&#45;&gt;numhask</title>
<path fill="none" stroke="black" d="M796.05,-533.18C773.29,-615.37 707.06,-854.62 682.32,-943.99"/>
<polygon fill="black" stroke="black" points="680.66,-943.42 681.01,-948.71 684.04,-944.35 680.66,-943.42"/>
</g>
<!-- chart&#45;svg&#45;&gt;harpie -->
<g id="edge37" class="edge">
<title>chart&#45;svg&#45;&gt;harpie</title>
<path fill="none" stroke="black" d="M837.42,-532.49C940.02,-616.48 1248.52,-869.05 1349.48,-951.7"/>
<polygon fill="black" stroke="black" points="1348.27,-952.97 1353.24,-954.78 1350.48,-950.26 1348.27,-952.97"/>
</g>
<!-- chart&#45;svg&#45;&gt;formatn -->
<g id="edge38" class="edge">
<title>chart&#45;svg&#45;&gt;formatn</title>
<path fill="none" stroke="black" d="M770.44,-521.19C682.41,-563.87 444.62,-679.14 353.79,-723.18"/>
<polygon fill="black" stroke="black" points="353.12,-721.56 349.38,-725.31 354.64,-724.71 353.12,-721.56"/>
</g>
<!-- chart&#45;svg&#45;&gt;circuits&#45;parser -->
<g id="edge39" class="edge">
<title>chart&#45;svg&#45;&gt;circuits&#45;parser</title>
<path fill="none" stroke="black" d="M837.42,-513.25C979.79,-548.22 1534.38,-684.47 1709.53,-727.5"/>
<polygon fill="black" stroke="black" points="1709.11,-729.2 1714.38,-728.69 1709.94,-725.8 1709.11,-729.2"/>
</g>
<!-- calculational -->
<g id="node23" class="node">
<title>calculational</title>
<polygon fill="none" stroke="black" points="649.35,-770.4 564.35,-770.4 564.35,-712.8 649.35,-712.8 649.35,-770.4"/>
<text xml:space="preserve" text-anchor="middle" x="606.85" y="-736.55" font-family="Times,serif" font-size="14.00">calculational</text>
</g>
<!-- calculational&#45;&gt;numhask -->
<g id="edge40" class="edge">
<title>calculational&#45;&gt;numhask</title>
<path fill="none" stroke="black" d="M614.68,-770.55C626.8,-813.83 650.09,-896.94 663.22,-943.83"/>
<polygon fill="black" stroke="black" points="661.48,-944.12 664.52,-948.46 664.85,-943.17 661.48,-944.12"/>
</g>
<!-- cabal&#45;graph -->
<g id="node24" class="node">
<title>cabal&#45;graph</title>
<polygon fill="none" stroke="black" points="1348.72,-57.6 1268.97,-57.6 1268.97,0 1348.72,0 1348.72,-57.6"/>
<text xml:space="preserve" text-anchor="middle" x="1308.85" y="-23.75" font-family="Times,serif" font-size="14.00">cabal&#45;graph</text>
</g>
<!-- cabal&#45;graph&#45;&gt;dotparse -->
<g id="edge41" class="edge">
<title>cabal&#45;graph&#45;&gt;dotparse</title>
<path fill="none" stroke="black" d="M1308.85,-57.75C1308.85,-100.94 1308.85,-183.8 1308.85,-230.74"/>
<polygon fill="black" stroke="black" points="1307.1,-230.6 1308.85,-235.6 1310.6,-230.6 1307.1,-230.6"/>
</g>
<!-- box&#45;socket&#45;&gt;box -->
<g id="edge42" class="edge">
<title>box&#45;socket&#45;&gt;box</title>
<path fill="none" stroke="black" d="M2290.85,-532.95C2290.85,-576.14 2290.85,-659 2290.85,-705.94"/>
<polygon fill="black" stroke="black" points="2289.1,-705.8 2290.85,-710.8 2292.6,-705.8 2289.1,-705.8"/>
</g>
<!-- anal -->
<g id="node27" class="node">
<title>anal</title>
<polygon fill="none" stroke="black" points="1516.85,-57.6 1462.85,-57.6 1462.85,0 1516.85,0 1516.85,-57.6"/>
<text xml:space="preserve" text-anchor="middle" x="1489.85" y="-23.75" font-family="Times,serif" font-size="14.00">anal</text>
</g>
<!-- anal&#45;&gt;web&#45;rep -->
<g id="edge43" class="edge">
<title>anal&#45;&gt;web&#45;rep</title>
<path fill="none" stroke="black" d="M1517.14,-43.78C1526.47,-48.38 1537.03,-53.39 1546.85,-57.6 1740.58,-140.62 1979.69,-223.01 2069.49,-253.27"/>
<polygon fill="black" stroke="black" points="2068.71,-254.85 2074.01,-254.79 2069.83,-251.54 2068.71,-254.85"/>
</g>
<!-- anal&#45;&gt;prettychart -->
<g id="edge44" class="edge">
<title>anal&#45;&gt;prettychart</title>
<path fill="none" stroke="black" d="M1462.4,-37.77C1343.14,-72.42 869.37,-210.05 722.5,-252.72"/>
<polygon fill="black" stroke="black" points="722.35,-250.94 718.03,-254.02 723.32,-254.3 722.35,-250.94"/>
</g>
<!-- anal&#45;&gt;numhask -->
<g id="edge45" class="edge">
<title>anal&#45;&gt;numhask</title>
<path fill="none" stroke="black" d="M1481.34,-57.76C1465.05,-108.43 1425.91,-217.42 1368.85,-295.2 1327.82,-351.13 953.54,-663.4 904.85,-712.8 826.19,-792.6 741.37,-894.01 699.44,-945.3"/>
<polygon fill="black" stroke="black" points="698.28,-943.95 696.48,-948.93 701,-946.17 698.28,-943.95"/>
</g>
<!-- anal&#45;&gt;mealy -->
<g id="edge46" class="edge">
<title>anal&#45;&gt;mealy</title>
<path fill="none" stroke="black" d="M1494.68,-57.97C1501.95,-108.51 1511,-216.67 1471.85,-295.2 1425.85,-387.48 1318.92,-455.86 1264.67,-485.99"/>
<polygon fill="black" stroke="black" points="1264.14,-484.28 1260.6,-488.23 1265.82,-487.35 1264.14,-484.28"/>
</g>
<!-- anal&#45;&gt;circuits&#45;parser -->
<g id="edge47" class="edge">
<title>anal&#45;&gt;circuits&#45;parser</title>
<path fill="none" stroke="black" d="M1500.55,-57.66C1543.45,-169.36 1702.9,-584.51 1749.8,-706.61"/>
<polygon fill="black" stroke="black" points="1748.1,-707.09 1751.53,-711.13 1751.37,-705.84 1748.1,-707.09"/>
</g>
<!-- anal&#45;&gt;chart&#45;svg -->
<g id="edge48" class="edge">
<title>anal&#45;&gt;chart&#45;svg</title>
<path fill="none" stroke="black" d="M1462.53,-48.64C1355.74,-122.31 966.24,-390.99 842.12,-476.6"/>
<polygon fill="black" stroke="black" points="841.48,-474.92 838.36,-479.2 843.47,-477.8 841.48,-474.92"/>
</g>
</g>
</svg>
